<?xml version="1.0" encoding="UTF-8" standalone="no"?>
<svg
   xmlns:dc="http://purl.org/dc/elements/1.1/"
   xmlns:cc="http://creativecommons.org/ns#"
   xmlns:rdf="http://www.w3.org/1999/02/22-rdf-syntax-ns#"
   xmlns:svg="http://www.w3.org/2000/svg"
   xmlns="http://www.w3.org/2000/svg"
   xmlns:sodipodi="http://sodipodi.sourceforge.net/DTD/sodipodi-0.dtd"
   xmlns:inkscape="http://www.inkscape.org/namespaces/inkscape"
   enable-background="new 0 0 32 32"
   height="32px"
   id="Layer_1"
   version="1.1"
   viewBox="0 0 32 32"
   width="32px"
   xml:space="preserve"
   inkscape:version="0.48.4 r9939"
   sodipodi:docname="camera.svg"><metadata
     id="metadata14"><rdf:RDF><cc:Work
         rdf:about=""><dc:format>image/svg+xml</dc:format><dc:type
           rdf:resource="http://purl.org/dc/dcmitype/StillImage" /></cc:Work></rdf:RDF></metadata><defs
     id="defs12" /><sodipodi:namedview
     pagecolor="#ffffff"
     bordercolor="#666666"
     borderopacity="1"
     objecttolerance="10"
     gridtolerance="10"
     guidetolerance="10"
     inkscape:pageopacity="0"
     inkscape:pageshadow="2"
     inkscape:window-width="640"
     inkscape:window-height="480"
     id="namedview10"
     showgrid="false"
     inkscape:zoom="7.375"
     inkscape:cx="16"
     inkscape:cy="16"
     inkscape:window-x="0"
     inkscape:window-y="24"
     inkscape:window-maximized="0"
     inkscape:current-layer="Layer_1" /><g
     id="camera"
     transform="matrix(0.81355932,0,0,0.82423101,2.9830508,1.8832392)"><path
       clip-rule="evenodd"
       d="m 16,10.001 c -4.419,0 -8,3.581 -8,8 0,4.418 3.581,8 8,8 4.418,0 8,-3.582 8,-8 0,-4.418 -3.582,-8 -8,-8 z m 4.555,11.905 c -2.156,2.516 -5.943,2.807 -8.459,0.65 -2.517,-2.156 -2.807,-5.944 -0.65,-8.459 2.155,-2.517 5.943,-2.807 8.459,-0.65 2.515,2.155 2.806,5.944 0.65,8.459 z"
       id="path4"
       inkscape:connector-curvature="0"
       style="fill:#333333;fill-rule:evenodd" /><path
       clip-rule="evenodd"
       d="m 16,14.001 c -2.209,0 -3.999,1.791 -4,3.999 v 0.002 c 0,0.275 0.224,0.5 0.5,0.5 0.276,0 0.5,-0.225 0.5,-0.5 V 18 c 10e-4,-1.656 1.343,-2.999 3,-2.999 0.276,0 0.5,-0.224 0.5,-0.5 0,-0.276 -0.224,-0.5 -0.5,-0.5 z"
       id="path6"
       inkscape:connector-curvature="0"
       style="fill:#333333;fill-rule:evenodd" /><path
       clip-rule="evenodd"
       d="M 29.492,9.042 25.158,8.319 23.785,4.885 C 23.326,3.74 22.232,3 21,3 H 11 C 9.768,3 8.674,3.74 8.214,4.886 L 6.842,8.319 2.509,9.042 C 1.055,9.283 0,10.527 0,12 v 15 c 0,1.654 1.346,3 3,3 h 26 c 1.654,0 3,-1.346 3,-3 V 12 C 32,10.527 30.945,9.283 29.492,9.042 z M 30,27 c 0,0.553 -0.447,1 -1,1 H 3 C 2.447,28 2,27.553 2,27 V 12 C 2,11.511 2.354,11.094 2.836,11.014 L 8.28,10.107 10.071,5.629 C 10.224,5.25 10.591,5 11,5 h 10 c 0.408,0 0.775,0.249 0.928,0.629 l 1.791,4.478 5.445,0.907 C 29.646,11.094 30,11.511 30,12 v 15 z"
       id="path8"
       inkscape:connector-curvature="0"
       style="fill:#333333;fill-rule:evenodd" /></g></svg>