<?xml version="1.0" encoding="UTF-8" standalone="no"?>
<!-- Created with Inkscape (http://www.inkscape.org/) -->

<svg
   xmlns:dc="http://purl.org/dc/elements/1.1/"
   xmlns:cc="http://creativecommons.org/ns#"
   xmlns:rdf="http://www.w3.org/1999/02/22-rdf-syntax-ns#"
   xmlns:svg="http://www.w3.org/2000/svg"
   xmlns="http://www.w3.org/2000/svg"
   xmlns:sodipodi="http://sodipodi.sourceforge.net/DTD/sodipodi-0.dtd"
   xmlns:inkscape="http://www.inkscape.org/namespaces/inkscape"
   width="32px"
   height="32px"
   id="svg3198"
   version="1.1"
   inkscape:version="0.48.4 r9939"
   sodipodi:docname="New document 15">
  <defs
     id="defs3200" />
  <sodipodi:namedview
     id="base"
     pagecolor="#ffffff"
     bordercolor="#666666"
     borderopacity="1.0"
     inkscape:pageopacity="0.0"
     inkscape:pageshadow="2"
     inkscape:zoom="5.598901"
     inkscape:cx="-1.1729175"
     inkscape:cy="21.336935"
     inkscape:current-layer="layer1"
     showgrid="true"
     inkscape:grid-bbox="true"
     inkscape:document-units="px"
     inkscape:window-width="660"
     inkscape:window-height="372"
     inkscape:window-x="203"
     inkscape:window-y="429"
     inkscape:window-maximized="0" />
  <metadata
     id="metadata3203">
    <rdf:RDF>
      <cc:Work
         rdf:about="">
        <dc:format>image/svg+xml</dc:format>
        <dc:type
           rdf:resource="http://purl.org/dc/dcmitype/StillImage" />
        <dc:title></dc:title>
      </cc:Work>
    </rdf:RDF>
  </metadata>
  <g
     id="layer1"
     inkscape:label="Layer 1"
     inkscape:groupmode="layer">
    <path
       style="fill:#c2c2c2"
       d="M 1.2231401,31.217489 C 0.07661953,29.872179 1.2458209,27.633149 5.8933485,22.274168 11.837115,15.42048 11.86998,16.097333 5.2272287,8.5557483 0.37291572,3.0445976 -0.3609011,0.57937511 2.7273269,0.15745154 4.03458,-0.02114669 5.47756,1.2768703 10.42374,7.0806737 c 4.038285,4.7384883 6.08751,7.6934513 6.08751,8.7781403 0,2.238528 -11.5864118,15.850155 -13.4918803,15.850155 -0.7575595,0 -1.565865,-0.221166 -1.7962296,-0.49148 z m 8.8120089,-7.10752 c 3.241007,-3.802975 5.847822,-7.481133 5.847822,-8.251155 0,-1.517383 -11.2130003,-15.11293885 -12.4644684,-15.11293885 -0.4228504,0 -0.9371718,0.51479855 -1.1429394,1.14399075 C 2.0238811,2.6594536 3.572481,5.0426898 7.0073745,9.1719506 9.8156347,12.547908 12.1133,15.556997 12.1133,15.858814 c 0,0.301816 -2.2976653,3.310906 -5.1059255,6.686863 -3.4348935,4.12926 -4.9834934,6.512497 -4.7318113,7.282085 0.2057676,0.629192 0.720089,1.14399 1.1429394,1.14399 0.4228503,0 3.4003444,-3.087801 6.6166464,-6.861783 z"
       id="path3144"
       inkscape:connector-curvature="0" />
  </g>
</svg>
